<?xml version="1.0" standalone="no"?>
<!DOCTYPE svg PUBLIC "-//W3C//DTD SVG 1.1//EN" "http://www.w3.org/Graphics/SVG/1.1/DTD/svg11.dtd" >
<svg xmlns="http://www.w3.org/2000/svg" xmlns:xlink="http://www.w3.org/1999/xlink" version="1.1">
<metadata>
Created by FontForge 20150318 at Mon Jul 13 17:38:24 2015
 By uniteet7
(c) 2001, Graham Meade. All rights reserved. For more works by the designer visit www.apostrophiclab.com
</metadata>
<defs>
<font id="Asenine" horiz-adv-x="1066" >
  <font-face 
    font-family="Asenine"
    font-weight="400"
    font-stretch="normal"
    units-per-em="2455"
    panose-1="0 0 4 0 0 0 0 0 0 0"
    ascent="1964"
    descent="-491"
    x-height="967"
    cap-height="1432"
    bbox="-314 -483 1911 1972"
    underline-thickness="81"
    underline-position="-176"
    unicode-range="U+000C-2122"
  />
<missing-glyph horiz-adv-x="1227" 
 />
    <glyph glyph-name=".notdef" horiz-adv-x="1227" 
 />
    <glyph glyph-name=".null" horiz-adv-x="0" 
 />
    <glyph glyph-name="nonmarkingreturn" horiz-adv-x="1227" 
 />
    <glyph glyph-name="space" unicode=" " horiz-adv-x="729" 
 />
    <glyph glyph-name="space" unicode="&#xa0;" horiz-adv-x="729" 
 />
    <glyph glyph-name="caron" horiz-adv-x="639" 
d="M593 1432h-99l-173 -237l-173 237h-101l208 -311h132z" />
    <glyph glyph-name="dotlessi" unicode="&#xd;" horiz-adv-x="177" 
d="M131 0h-84v967h84v-967z" />
    <glyph glyph-name="exclam" unicode="!" horiz-adv-x="246" 
d="M165 287h-84v1169h84v-1169zM200 68q0 -78 -76 -78q-77 0 -77 78q0 75 77 75q76 0 76 -75z" />
    <glyph glyph-name="quotedbl" unicode="&#x22;" horiz-adv-x="464" 
d="M418 1434l-10 -333h-86l-10 333h106zM153 1434l-10 -333h-86l-10 333h106z" />
    <glyph glyph-name="numbersign" unicode="#" horiz-adv-x="1169" 
d="M706 469l37 283h-283l-37 -283h283zM872 1118l-37 -287h287l-10 -79h-287l-37 -283h287l-10 -82h-287l-37 -287h-82l37 287h-283l-37 -287h-79l37 287h-287l10 82h287l37 283h-287l10 79h287l37 287h79l-37 -287h283l37 287h82z" />
    <glyph glyph-name="dollar" unicode="$" horiz-adv-x="992" 
d="M946 369q0 -293 -303 -355v-173h-90v161q-31 -2 -64 -2h-76v-159h-90v159q-161 3 -276 60v86q168 -62 276 -60v676q-115 52 -164 93q-112 93 -112 255q0 251 276 306v163h90v-150q41 3 87 3h53v147h90v-147q76 -11 84 -13q71 -15 133 -47v-78q-106 52 -217 60v-621
q127 -54 172 -92q131 -111 131 -272zM553 770v584h-78q-33 0 -62 -2v-527l15 -6zM323 864v474q-186 -46 -186 -222q0 -123 89 -195q32 -26 97 -57zM848 362q0 130 -109 211q-31 23 -96 54v-516q205 54 205 251zM553 95v572q-11 5 -41 17l-99 40v-638q78 1 140 9z" />
    <glyph glyph-name="percent" unicode="%" horiz-adv-x="1254" 
d="M664 1166q0 -138 -84.5 -222.5t-222.5 -84.5t-224 84.5t-86 222.5q0 139 85.5 224t224.5 85q138 0 222.5 -85.5t84.5 -223.5zM1122 1442l-944 -1467h-89l949 1467h84zM1208 303q0 -138 -85.5 -222.5t-223.5 -84.5q-140 0 -224 84t-84 223q0 140 84.5 224.5t223.5 84.5
q138 0 223.5 -85.5t85.5 -223.5zM580 1166q0 101 -61.5 164t-161.5 63q-101 0 -163.5 -63t-62.5 -164t62.5 -164t163.5 -63q99 0 161 63.5t62 163.5zM1124 303q0 101 -62.5 164.5t-162.5 63.5q-101 0 -163.5 -63.5t-62.5 -164.5t62.5 -164t163.5 -63t163 63t62 164z" />
    <glyph glyph-name="ampersand" unicode="&#x26;" horiz-adv-x="1052" 
d="M1006 400q0 -169 -137 -287l1 -1l-493 -357q92 -71 184 -71q64 0 222 76q123 59 197 59l-1 -76q-55 0 -185 -58l-18 -8l-8 -4q-134 -67 -207 -67q-134 0 -307 161l59 44l257 187q-21 -2 -42 -2q-190 0 -328 105q-153 116 -153 299q0 168 138 286q65 56 147 86
q-57 26 -102 66q-118 105 -118 257q0 167 126 268q116 95 287 95q173 0 288 -93q124 -101 124 -270q0 -152 -118 -257q-45 -40 -98 -65q-61 -40 -193 -40q-163 0 -268 -83q-116 -90 -116 -249t116 -249q105 -83 268 -83q121 0 212 53l64 46q105 95 105 233zM847 1096
q0 137 -94 218q-89 76 -228 76q-138 0 -228 -77q-96 -81 -96 -217q0 -137 95 -218q89 -75 229 -75q134 0 225 79q97 82 97 214z" />
    <glyph glyph-name="quotesingle" unicode="'" horiz-adv-x="199" 
d="M153 1434l-10 -333h-86l-10 333h106z" />
    <glyph glyph-name="parenleft" unicode="(" horiz-adv-x="397" 
d="M351 1599q-237 -411 -237 -860q0 -487 237 -842l-32 -72q-272 384 -272 912q0 492 267 927z" />
    <glyph glyph-name="parenright" unicode=")" horiz-adv-x="397" 
d="M351 737q0 -528 -272 -912l-32 72q237 355 237 842q0 449 -237 860l37 65q267 -435 267 -927z" />
    <glyph glyph-name="asterisk" unicode="*" horiz-adv-x="812" 
d="M766 1067h-333l5 5v-2q27 -191 247 -191l-6 -64q-141 0 -229 84q-30 28 -49 60q-18 -31 -49 -60q-88 -84 -228 -84l-7 64q95 0 161 47q72 51 86 141h-317v65h317v3q-9 73 -62 126q-70 70 -181 70l2 58q141 0 230 -84q27 -26 48 -59q19 31 48 59q88 84 230 84l2 -58
q-111 0 -181 -70q-53 -53 -62 -126v-3h328v-65z" />
    <glyph glyph-name="plus" unicode="+" horiz-adv-x="991" 
d="M945 569h-409v-419h-80v419h-409v82h409v420h80v-420h409v-82z" />
    <glyph glyph-name="comma" unicode="," horiz-adv-x="259" 
d="M213 80q0 -14 -2 -26l1 -1l-73 -221h-92l50 177q-44 17 -44 71q0 75 84 75h2v1v-1q74 -1 74 -75z" />
    <glyph glyph-name="hyphen" unicode="-" horiz-adv-x="747" 
d="M701 455h-654v82h654v-82z" />
    <glyph glyph-name="period" unicode="." horiz-adv-x="246" 
d="M200 68q0 -78 -76 -78q-77 0 -77 78q0 75 77 75q76 0 76 -75z" />
    <glyph glyph-name="slash" unicode="/" horiz-adv-x="725" 
d="M679 1456l-541 -1454h-91l542 1454h90z" />
    <glyph glyph-name="zero" unicode="0" horiz-adv-x="1082" 
d="M1036 717q0 -347 -91 -521q-116 -221 -397 -221q-291 0 -408 216q-93 171 -93 526q0 354 93 525q116 214 408 214q289 0 401 -215q87 -167 87 -524zM942 719q0 332 -58 463q-85 192 -336 192q-256 0 -344 -191q-63 -136 -63 -464q0 -327 64 -465q89 -193 343 -193
q251 0 336 194q58 133 58 464z" />
    <glyph glyph-name="one" unicode="1" horiz-adv-x="396" 
d="M350 0h-82v1290l-221 -118v90l303 170v-1432z" />
    <glyph glyph-name="two" unicode="2" horiz-adv-x="922" 
d="M876 1042q0 -170 -105 -287q-108 -121 -276 -121h-6q-132 0 -220 -73.5t-107 -202.5v-189q0 -75 81 -87h592v-82h-582q-79 0 -129 45t-50 123v134q0 185 114 300q86 87 212 108l6 1h4q184 18 265 84q111 91 111 249q0 152 -87 241t-238 89q-293 0 -330 -317h-84
q17 183 124 289q110 110 292 110q191 0 302 -111.5t111 -302.5z" />
    <glyph glyph-name="three" unicode="3" horiz-adv-x="920" 
d="M720 1128q0 127 -107 195q-90 58 -224 58q-139 0 -239 -79l-64 52q129 99 303 99q165 0 286 -83q134 -92 134 -243q0 -196 -212 -285q129 -53 203 -162.5t74 -248.5q0 -204 -143 -330q-137 -121 -343 -121q-197 0 -341 135l62 53q115 -112 279 -112q173 0 283.5 102.5
t110.5 274.5q0 151 -89.5 252t-239.5 121q-5 -1 -190 -1v73l188 -1q269 35 269 251z" />
    <glyph glyph-name="four" unicode="4" horiz-adv-x="1087" 
d="M1041 406h-205v-406h-90v406h-564q-135 0 -135 83q0 46 35 93l652 874h102v-975h205v-75zM746 481v854l-586 -790q-12 -16 -12 -37q0 -27 59 -27h539z" />
    <glyph glyph-name="five" unicode="5" horiz-adv-x="947" 
d="M901 422q0 -201 -130 -314q-123 -108 -326 -108h-69q-205 0 -329 103l61 61q90 -84 254 -84h68q377 0 377 340q0 160 -95.5 249t-256.5 89h-371v674h719v-76h-629v-520h266q209 0 330 -101q131 -108 131 -313z" />
    <glyph glyph-name="six" unicode="6" horiz-adv-x="1069" 
d="M1023 503q0 -220 -135 -361t-354 -141q-218 0 -354 143q-133 140 -133 359q0 90 26 169l-3 1l316 780h89l-214 -530q117 81 273 81q218 0 353.5 -141t135.5 -360zM935 501q0 185 -107 303q-110 121 -294 121q-182 0 -293 -122q-106 -118 -106 -302q0 -185 106 -303
q109 -121 293 -121t294 121q107 118 107 303z" />
    <glyph glyph-name="seven" unicode="7" horiz-adv-x="1081" 
d="M1035 1337q0 -29 -21 -77l-555 -1260h-94l567 1282q10 23 10 47q0 27 -47 27h-848v76h854q134 0 134 -95z" />
    <glyph glyph-name="eight" unicode="8" horiz-adv-x="1052" 
d="M1006 400q0 -184 -151 -299q-138 -105 -327 -105q-190 0 -328 105q-153 116 -153 299q0 168 138 286q65 56 147 86q-57 26 -102 66q-118 105 -118 257q0 167 126 268q116 95 287 95q173 0 288 -93q124 -101 124 -270q0 -152 -118 -257q-45 -40 -98 -65q82 -30 150 -88
q135 -116 135 -285zM847 1096q0 137 -94 218q-89 76 -228 76q-138 0 -228 -77q-96 -81 -96 -217q0 -137 95 -218q89 -75 229 -75q134 0 225 79q97 82 97 214zM545 798v5q-25 1 -38 0v-5h38zM547 733v5h-41v-5q9 -1 19 -1q11 0 22 1zM909 401q0 156 -115 248q-106 84 -266 84
q-163 0 -268 -83q-116 -90 -116 -249t116 -249q105 -83 268 -83q160 0 266 84q115 92 115 248z" />
    <glyph glyph-name="nine" unicode="9" horiz-adv-x="1069" 
d="M1023 951q0 -90 -26 -168l3 -1l-316 -781h-89l214 530q-117 -81 -273 -81q-217 0 -353 141.5t-136 359.5t136 360t353 142q219 0 353 -141t134 -361zM935 953q0 185 -106 303q-109 121 -293 121t-295 -121q-106 -117 -106 -303t106 -303q110 -121 295 -121q182 0 292 122
q107 119 107 302z" />
    <glyph glyph-name="colon" unicode=":" horiz-adv-x="247" 
d="M201 713q0 -76 -76 -76q-78 0 -78 76q0 78 78 78q76 0 76 -78zM201 68q0 -78 -76 -78q-78 0 -78 78q0 75 78 75q76 0 76 -75z" />
    <glyph glyph-name="semicolon" unicode=";" horiz-adv-x="259" 
d="M207 713q0 -76 -76 -76q-78 0 -78 76q0 78 78 78q76 0 76 -78zM213 80q0 -14 -2 -26l1 -1l-73 -221h-92l50 177q-44 17 -44 71q0 75 84 75h2v1v-1q74 -1 74 -75z" />
    <glyph glyph-name="less" unicode="&#x3c;" horiz-adv-x="931" 
d="M885 98l-838 482v61l838 483v-100l-705 -414l705 -414v-98z" />
    <glyph glyph-name="equal" unicode="=" horiz-adv-x="1111" 
d="M1065 752h-1018v79h1018v-79zM1065 387h-1018v82h1018v-82z" />
    <glyph glyph-name="greater" unicode="&#x3e;" horiz-adv-x="931" 
d="M885 580l-838 -482v98l705 414l-705 414v100l838 -483v-61z" />
    <glyph glyph-name="question" unicode="?" horiz-adv-x="892" 
d="M846 1042q0 -365 -409 -415v-359h-86v443h29q163 0 265 84q111 90 111 249q0 152 -87 241t-238 89q-144 0 -231 -88q-36 -36 -51 -99q-6 -25 -18 -130h-84q20 213 95 288q111 111 291 111q191 0 302 -111.5t111 -302.5zM470 68q0 -78 -76 -78q-78 0 -78 78q0 75 78 75
q76 0 76 -75z" />
    <glyph glyph-name="at" unicode="@" horiz-adv-x="1905" 
d="M1859 174q-155 -220 -441 -347q-239 -106 -450 -106q-376 0 -620 185q-301 228 -301 616q0 330 198 572q291 356 795 356q333 0 553 -168q260 -199 260 -504q0 -346 -244 -540q-140 -111 -275 -111q-82 0 -115 30q-36 32 -36 113l17 4l-7 15q-110 -107 -266 -158
q-93 -30 -188 -27q-214 7 -312 155q-61 92 -60 211q0 71 23 151q63 221 228 355q172 138 397 131q257 -8 343 -227l55 197l84 -3l-217 -780l2 1q0 -54 9 -69q14 -23 68 -23q89 0 195 93q201 176 201 472q0 293 -222 458q-199 148 -503 148q-338 0 -569 -192
q-310 -257 -310 -672q0 -356 234 -544q215 -173 579 -173q192 0 437 109q278 124 407 311zM1291 722q0 87 -31 155q-67 148 -263 154q-186 6 -330 -114q-138 -114 -189 -297q-20 -73 -20 -138q0 -95 44 -167q77 -126 259 -132q97 -3 191 35q161 65 276 194l36 131
q27 98 27 179z" />
    <glyph glyph-name="A" unicode="A" horiz-adv-x="1041" 
d="M995 0h-90v711h-768v-711h-90v926q0 235 118 377q126 153 357 153q227 0 354 -155q119 -143 119 -375v-926zM905 791v104q0 479 -383 479q-385 0 -385 -479v-104h768z" />
    <glyph glyph-name="B" unicode="B" horiz-adv-x="1010" 
d="M964 394q0 -190 -133 -295q-121 -96 -316 -96h-287q-62 0 -114 39q-65 48 -65 131l-2 1125h1q0 78 49.5 124t128.5 46l244 1q175 1 294 -100q126 -107 126 -279q0 -234 -248 -319q322 -78 322 -377zM796 1082q0 136 -92 220q-64 58 -117 74q-33 10 -119 10h-250
q-81 -12 -81 -87v-506h259v1h46q145 0 243 70q111 78 111 218zM870 394q0 320 -403 320h-86v-1h-244l2 -541q0 -75 81 -87h279q371 0 371 309z" />
    <glyph glyph-name="C" unicode="C" horiz-adv-x="1322" 
d="M1276 1239l-68 -53q-179 188 -440 188q-282 0 -457 -188q-170 -182 -170 -467q0 -286 169 -469q174 -189 458 -189q255 0 440 195l48 -82q-207 -199 -488 -199q-323 0 -524 210q-197 207 -197 532q0 322 200 530.5t521 208.5q297 0 508 -217z" />
    <glyph glyph-name="D" unicode="D" horiz-adv-x="1157" 
d="M1111 728q0 -315 -142 -508q-160 -217 -465 -217h-276q-62 0 -114 39q-65 48 -65 131l-2 1125h1q0 78 49.5 124t128.5 46l244 1q301 1 479 -224q162 -205 162 -517zM1017 730q0 277 -134 456q-150 200 -417 200h-248q-81 -12 -81 -87l2 -1127q0 -75 81 -87l279 -1
q268 0 402 197q116 169 116 449z" />
    <glyph glyph-name="E" unicode="E" horiz-adv-x="804" 
d="M758 0h-532q-75 0 -127 48t-52 122v1092h1q0 78 49.5 124t128.5 46h532v-82h-540q-81 -12 -81 -87v-506h534v-80h-534v-508q0 -75 81 -87h540v-82z" />
    <glyph glyph-name="F" unicode="F" horiz-adv-x="804" 
d="M758 1350h-540q-81 -12 -81 -87v-506h522v-80h-522v-677h-90v1262h1q0 78 49.5 124t128.5 46h532v-82z" />
    <glyph glyph-name="G" unicode="G" horiz-adv-x="1322" 
d="M1276 1239l-68 -53q-179 188 -440 188q-282 0 -457 -188q-170 -182 -170 -467q0 -286 169 -469q174 -189 458 -189q238 0 415 170v332q0 75 -81 87h-540v82h532q64 0 114 -35q65 -46 65 -135v-582h-90v132q-182 -137 -415 -137q-323 0 -524 210q-197 207 -197 532
q0 322 200 530.5t521 208.5q297 0 508 -217z" />
    <glyph glyph-name="H" unicode="H" horiz-adv-x="1042" 
d="M996 0h-91v711h-768v-711h-90v1432h90v-641h768v641h91v-1432z" />
    <glyph glyph-name="I" unicode="I" horiz-adv-x="183" 
d="M137 0h-90v1432h90v-1432z" />
    <glyph glyph-name="J" unicode="J" horiz-adv-x="771" 
d="M725 455q0 -197 -72 -319q-88 -151 -272 -151q-55 0 -119 15l-215 50l26 86l220 -54q41 -10 78 -10q135 0 206 119q58 98 58 243v998h90v-977z" />
    <glyph glyph-name="K" unicode="K" horiz-adv-x="1045" 
d="M999 1h-114l-589 772l-159 -152v-619h-90v1432h90v-688l709 683h133l-617 -593z" />
    <glyph glyph-name="L" unicode="L" horiz-adv-x="804" 
d="M758 0h-532q-65 0 -114 35q-65 46 -65 135v1262h90v-1263q0 -75 81 -87h540v-82z" />
    <glyph glyph-name="M" unicode="M" horiz-adv-x="1323" 
d="M1277 1h-90l-1 1335q0 32 -22 32q-17 0 -27 -35l-358 -1206q-38 -129 -117 -129t-117 129l-358 1206q-10 35 -27 35q-22 0 -22 -32v-1340h-90l-1 1335q0 113 111 113q87 0 115 -96l364 -1227q10 -33 25 -33q14 0 24 32l365 1228q29 96 117 96q108 0 108 -112z" />
    <glyph glyph-name="N" unicode="N" 
d="M1020 124q0 -129 -115 -129q-78 0 -125 99l-589 1247q-10 21 -27 21q-27 0 -27 -37v-1325h-90v1315q0 129 115 129q79 0 125 -98l590 -1246q10 -21 26 -21q27 0 27 35v1318h90v-1308z" />
    <glyph glyph-name="O" unicode="O" horiz-adv-x="1452" 
d="M1406 717q0 -360 -190 -543q-207 -199 -488 -199q-312 0 -518 216q-163 171 -163 526q0 354 165 526q204 213 516 213q309 0 515 -216q163 -171 163 -523zM1312 719q0 319 -133 463q-178 192 -451 192q-276 0 -453 -191q-134 -144 -134 -464t134 -465q178 -193 453 -193
q273 0 451 194q133 145 133 464z" />
    <glyph glyph-name="P" unicode="P" horiz-adv-x="974" 
d="M928 1018q0 -195 -146 -326q-125 -112 -356 -112h-289v-580h-90v1282q0 89 65 135q50 35 114 35l268 -1q195 0 314.5 -118.5t119.5 -314.5zM834 1016q0 160 -89 256q-92 98 -251 98h-276q-81 -12 -81 -87v-621h320q170 0 271 91q106 95 106 263z" />
    <glyph glyph-name="Q" unicode="Q" horiz-adv-x="1452" 
d="M1406 717q0 -358 -187 -540q-90 -87 -193 -137q-85 -177 -260 -245q12 -4 29 -12q173 -78 243 -78q129 0 310 158v-92q-168 -147 -310 -147q-73 0 -227 69q-2 1 -9 4l-19 9q-104 49 -185 58h-11v1h-8q-128 0 -310 -159v91q165 147 310 147q9 0 19 -1q187 7 299 152
q-81 -20 -169 -20q-312 0 -518 216q-163 171 -163 526q0 354 165 526q204 213 516 213q309 0 515 -216q163 -171 163 -523zM1312 719q0 319 -133 463q-178 192 -451 192q-276 0 -453 -191q-134 -144 -134 -464t134 -465q178 -193 453 -193q124 0 230 42q28 75 28 164
q0 183 -108 304q-112 126 -293 126l2 70q218 0 354 -143q133 -140 133 -359q0 -55 -10 -106q61 42 113 98q135 146 135 462z" />
    <glyph glyph-name="R" unicode="R" horiz-adv-x="974" 
d="M928 1018q0 -196 -146 -326q-38 -34 -90 -60l235 -631h-90l-225 602q-82 -23 -186 -23h-289v-580h-90v1282q0 89 65 135q50 35 114 35l268 -1q195 0 314.5 -118.5t119.5 -314.5zM834 1016q0 159 -91 256.5t-249 97.5h-276q-81 -12 -81 -87v-621h320q170 0 271 91
q106 95 106 263z" />
    <glyph glyph-name="S" unicode="S" horiz-adv-x="992" 
d="M946 369q0 -192 -138 -288q-120 -84 -319 -81l-58 1v-1h-25q-339 0 -339 373v57h78v-57q0 -287 268 -287h32q144 0 246 41q157 63 157 235q0 130 -109 211q-58 43 -227 111l-92 37q-194 78 -261 134q-112 93 -112 255q0 322 453 322h103q338 0 338 -369v-57h-78v57
q0 291 -269 291h-119q-338 0 -338 -238q0 -123 89 -195q55 -44 202 -102l142 -56q189 -75 245 -122q131 -111 131 -272z" />
    <glyph glyph-name="T" unicode="T" horiz-adv-x="992" 
d="M946 1350h-406v-1350h-90v1350h-403v82h899v-82z" />
    <glyph glyph-name="U" unicode="U" horiz-adv-x="1041" 
d="M995 506q0 -233 -118 -376q-127 -155 -355 -155q-232 0 -358 153q-117 141 -117 378v926h90v-891q0 -480 385 -480q383 0 383 480v891h90v-926z" />
    <glyph glyph-name="V" unicode="V" horiz-adv-x="1185" 
d="M1139 1432l-420 -1323q-42 -132 -127 -132q-83 0 -125 132l-420 1323h90l420 -1329q12 -37 35 -37q24 0 35 36l422 1330h90z" />
    <glyph glyph-name="W" unicode="W" horiz-adv-x="1765" 
d="M1719 1432l-420 -1323q-42 -132 -127 -132q-83 0 -125 132l-164 518l-164 -518q-42 -132 -127 -132q-83 0 -125 132l-420 1323h90l420 -1329q12 -37 35 -37q24 0 35 36l210 670l-210 660h90l420 -1329q12 -37 35 -37q24 0 35 36l422 1330h90z" />
    <glyph glyph-name="X" unicode="X" horiz-adv-x="1074" 
d="M1028 1h-91l-399 642l-400 -642h-91l445 715l-445 716h90l401 -644l400 644h90l-445 -716z" />
    <glyph glyph-name="Y" unicode="Y" horiz-adv-x="1074" 
d="M1028 1432l-448 -721v-711h-84v709l-449 723h90l401 -644l400 644h90z" />
    <glyph glyph-name="Z" unicode="Z" horiz-adv-x="1002" 
d="M956 0h-766q-143 0 -143 102q0 50 47 117l750 1069q12 17 12 33q0 31 -51 31h-746v80h750q135 0 135 -105q0 -49 -33 -96l-755 -1075q-17 -24 -17 -41q0 -33 53 -33h764v-82z" />
    <glyph glyph-name="bracketleft" unicode="[" horiz-adv-x="374" 
d="M328 -179h-102q-64 0 -114 35q-65 45 -65 135v1472q0 89 65 135q49 35 114 35h102v-72h-120q-81 -12 -81 -87v-1494q0 -75 81 -87h120v-72z" />
    <glyph glyph-name="backslash" unicode="\" horiz-adv-x="659" 
d="M613 -3h-90l-476 1459h91z" />
    <glyph glyph-name="bracketright" unicode="]" horiz-adv-x="374" 
d="M328 -9q0 -90 -65 -135q-51 -35 -114 -35h-102v72h120q81 13 81 87v1494q0 74 -81 87h-120v72h102q64 0 114 -35q65 -46 65 -135v-1472z" />
    <glyph glyph-name="asciicircum" unicode="^" horiz-adv-x="639" 
d="M593 1121h-99l-173 237l-173 -237h-101l208 311h132z" />
    <glyph glyph-name="underscore" unicode="_" horiz-adv-x="1117" 
d="M1071 -483h-1024v80h1024v-80z" />
    <glyph glyph-name="grave" unicode="`" horiz-adv-x="431" 
d="M47 1432l218 -351h120l-215 351h-123z" />
    <glyph glyph-name="a" unicode="a" horiz-adv-x="1065" 
d="M1019 0h-84v180q-79 -110 -220 -165q-85 -33 -179 -33q-221 0 -355 139.5t-134 361.5q0 226 129 362q131 140 356 140q257 0 403 -214v197h84v-968zM935 303v131q0 203 -96 331q-107 144 -303 144q-186 0 -295 -120q-106 -116 -106 -304q0 -191 104 -305
q108 -119 297 -119q96 0 179 41q144 71 220 201z" />
    <glyph glyph-name="b" unicode="b" 
d="M1020 483q0 -222 -133.5 -361.5t-355.5 -139.5q-94 0 -179 33q-142 55 -220 165v-180h-84l-1 1v1427h84v-657q147 214 404 214q225 0 356 -140q129 -136 129 -362zM932 485q0 187 -106 304q-109 120 -295 120q-198 0 -304 -143q-95 -127 -95 -332v-131q76 -130 220 -201
q83 -41 179 -41q187 0 296 120q105 115 105 304z" />
    <glyph glyph-name="c" unicode="c" horiz-adv-x="926" 
d="M880 840l-61 -53q-116 122 -283 122q-184 0 -295 -121q-106 -117 -106 -303t106 -303q110 -121 295 -121q167 0 283 124l59 -56q-143 -147 -342 -147q-217 0 -353 141.5t-136 359.5t136 360t353 142q202 0 344 -145z" />
    <glyph glyph-name="d" unicode="d" 
d="M1020 1428l-1 -1428h-84v180q-78 -110 -220 -165q-85 -33 -179 -33q-221 0 -355 139.5t-134 361.5q0 226 129 362q131 140 356 140q257 0 404 -214v657h84zM935 303v131q0 203 -96 331q-107 144 -303 144q-186 0 -295 -120q-106 -116 -106 -304q0 -190 104 -305
q109 -119 297 -119q96 0 179 41q144 71 220 201z" />
    <glyph glyph-name="e" unicode="e" horiz-adv-x="1067" 
d="M1021 499q0 -26 -5 -44h-880q10 -178 121 -286t289 -108q93 0 189 31q108 34 164 93l62 -59q-140 -144 -415 -144q-222 0 -360.5 139.5t-138.5 361.5q0 218 136 360t353 142q211 0 348 -137.5t137 -348.5zM933 535q-16 167 -123 270.5t-274 103.5t-275 -103.5
t-124 -270.5h796z" />
    <glyph glyph-name="f" unicode="f" horiz-adv-x="511" 
d="M520 1334l-104 20q-31 6 -62 6q-114 0 -173 -84q-52 -73 -52 -191v-118h311v-80h-311v-887h-82v1094q0 148 75 243q81 104 226 104q41 0 82 -9l90 -20v-78z" />
    <glyph glyph-name="g" unicode="g" horiz-adv-x="1065" 
d="M1019 39q0 -225 -123 -358q-127 -138 -350 -138q-116 0 -203 24q-51 14 -190 72l29 84q166 -96 368 -96q185 0 287 115q98 110 98 297v135q-37 -46 -110 -100q-61 -44 -100 -59q-89 -33 -189 -33q-221 0 -355 139.5t-134 361.5q0 226 129 362q131 140 356 140
q257 0 403 -214v196h84v-928zM935 287v147q0 203 -96 331q-107 144 -303 144q-186 0 -295 -120q-106 -116 -106 -304q0 -191 104 -305q108 -119 297 -119q105 0 189 41q129 63 210 185z" />
    <glyph glyph-name="h" unicode="h" horiz-adv-x="880" 
d="M834 0h-82v573q0 140 -75 233q-81 101 -218 101q-157 0 -247 -115q-83 -105 -83 -266v-526h-82v1432h82v-637q117 192 330 192q185 0 284 -126q91 -115 91 -304v-557z" />
    <glyph glyph-name="i" unicode="i" horiz-adv-x="214" 
d="M168 1239q0 -61 -62 -61q-59 0 -59 61q0 59 59 59q62 0 62 -59zM149 0h-84v967h84v-967z" />
    <glyph glyph-name="j" unicode="j" horiz-adv-x="538" 
d="M492 1239q0 -61 -60 -61q-61 0 -61 61q0 59 61 59q60 0 60 -59zM473 -98q0 -338 -369 -338h-57v78h57q287 0 287 268v1057h82v-1065z" />
    <glyph glyph-name="k" unicode="k" horiz-adv-x="911" 
d="M865 1h-100l-405 446l-229 -247v-200h-84v1432h84v-1127l626 679h100l-449 -485z" />
    <glyph glyph-name="l" unicode="l" horiz-adv-x="177" 
d="M131 0h-84v1432h84v-1432z" />
    <glyph glyph-name="m" unicode="m" horiz-adv-x="1422" 
d="M1376 0h-84v618q0 127 -71 207q-74 84 -199 84q-126 0 -200 -84q-71 -80 -71 -207v-618h-82v618q0 127 -71 207q-74 84 -199 84q-119 0 -194 -80q-59 -63 -72 -154v-675h-86v592q0 9 1 25.5t1 25.5v324h84v-98q96 116 270 116q199 0 307 -188q113 188 308 188
q173 0 268 -112q90 -105 90 -281v-592z" />
    <glyph glyph-name="n" unicode="n" horiz-adv-x="880" 
d="M834 0h-82v573q0 145 -82 238q-86 98 -229 98q-142 0 -226 -85.5t-84 -227.5v-594h-1v-2h-82v2h-1v967h84v-133q108 149 310 149q190 0 295 -127q98 -117 98 -311v-547z" />
    <glyph glyph-name="o" unicode="o" horiz-adv-x="1069" 
d="M1023 483q0 -219 -134.5 -360t-352.5 -141q-217 0 -353 141.5t-136 359.5t136 360t353 142q218 0 354 -143q133 -140 133 -359zM935 485q0 185 -106 303q-109 121 -293 121t-295 -121q-106 -117 -106 -303t106 -303q110 -121 295 -121q182 0 292 122q107 119 107 302z
" />
    <glyph glyph-name="p" unicode="p" 
d="M1020 483q0 -222 -133.5 -361.5t-355.5 -139.5q-94 0 -179 33q-142 55 -220 165v-640h-84l-1 1v1457h84v-227q147 214 404 214q225 0 356 -140q129 -136 129 -362zM932 485q0 187 -106 304q-109 120 -295 120q-198 0 -304 -143q-95 -127 -95 -332v-131q76 -130 220 -201
q83 -41 179 -41q187 0 296 120q105 115 105 304z" />
    <glyph glyph-name="q" unicode="q" 
d="M1020 998l-1 -1458h-84v640q-78 -110 -220 -165q-85 -33 -179 -33q-221 0 -355 139.5t-134 361.5q0 226 129 362q131 140 356 140q257 0 404 -214v227h84zM935 303v131q0 203 -96 331q-107 144 -303 144q-186 0 -295 -120q-106 -116 -106 -304q0 -190 104 -305
q109 -119 297 -119q96 0 179 41q144 71 220 201z" />
    <glyph glyph-name="r" unicode="r" horiz-adv-x="620" 
d="M574 875h-6q10 0 -113 14q-139 1 -235 -122q-91 -117 -91 -335v-432h-82v967h82v-189q117 193 338 193q17 -2 107 -15v-81z" />
    <glyph glyph-name="s" unicode="s" horiz-adv-x="833" 
d="M787 248q0 -248 -377 -248h-98q-181 0 -265 106l75 45q69 -71 190 -71h159q232 0 232 162q0 139 -221 200l-187 52q-241 67 -241 247q0 226 305 226h94v1h55q183 0 264 -102l-75 -45q-66 68 -198 68h-171q-190 0 -190 -152q0 -115 196 -170l195 -55q258 -73 258 -264z
" />
    <glyph glyph-name="t" unicode="t" horiz-adv-x="401" 
d="M393 887h-262v-691q0 -118 84 -118h58v-78h-43q-183 0 -183 188v1053h84v-274h262v-80z" />
    <glyph glyph-name="u" unicode="u" horiz-adv-x="879" 
d="M833 420q0 -194 -98 -311q-105 -127 -295 -127q-192 0 -296 126q-97 116 -97 312v547h82v-574q0 -147 81 -239q85 -97 230 -97q143 0 228 98q81 93 81 238v574h84v-547z" />
    <glyph glyph-name="v" unicode="v" horiz-adv-x="972" 
d="M926 967l-332 -889q-37 -98 -107 -98q-71 0 -108 98l-332 889h90l314 -848q17 -45 34 -45q21 0 37 44l314 849h90z" />
    <glyph glyph-name="w" unicode="w" horiz-adv-x="1432" 
d="M1386 967l-332 -889q-37 -98 -107 -98q-71 0 -108 98l-122 325l-123 -325q-37 -98 -107 -98q-71 0 -108 98l-332 889h90l314 -848q17 -45 34 -45q21 0 37 44l150 407l-165 442h90l314 -848q17 -45 34 -45q21 0 37 44l314 849h90z" />
    <glyph glyph-name="x" unicode="x" horiz-adv-x="934" 
d="M888 2h-91l-330 422l-329 -422h-91l375 495l-375 485h90l330 -413l321 413h90l-365 -485z" />
    <glyph glyph-name="y" unicode="y" horiz-adv-x="889" 
d="M843 30q0 -225 -123 -358q-127 -138 -350 -138q-171 0 -323 96l29 84q84 -61 183 -82q66 -14 115 -14q185 0 287 115q98 110 98 297v98q-109 -146 -309 -146q-192 0 -296 126q-97 116 -97 312v547h82v-574q0 -147 81 -239q85 -97 230 -97q143 0 228 98q81 93 81 238v574
h84v-937z" />
    <glyph glyph-name="z" unicode="z" horiz-adv-x="800" 
d="M754 0h-580q-127 0 -127 96q0 41 51 103l527 639q12 15 12 26q0 25 -37 25h-504v78h492q139 0 139 -90q0 -47 -43 -99l-524 -635q-16 -19 -16 -34q0 -25 43 -25h567v-84z" />
    <glyph glyph-name="braceleft" unicode="{" horiz-adv-x="720" 
d="M674 -212h-41q-199 0 -266 90q-57 76 -57 283v240q0 283 -263 327v4h1l3 1q116 17 189 114q70 93 70 213q0 297 -2 264q8 195 59 261q68 89 307 90v-83q-178 0 -226 -63q-42 -55 -44 -187q-1 -43 3 -120q3 -71 4 -121q2 -157 -22 -224q-39 -111 -163 -147
q127 -36 162 -134q23 -63 20 -218q-1 -22 -3 -88q-2 -62 0 -131q5 -177 42 -226q47 -62 227 -62v-83z" />
    <glyph glyph-name="bar" unicode="|" horiz-adv-x="183" 
d="M137 -483h-90v2048h90v-2048z" />
    <glyph glyph-name="braceright" unicode="}" horiz-adv-x="720" 
d="M674 728q-263 -44 -263 -327v-240q0 -207 -58 -283q-69 -90 -266 -90h-40v83q179 0 226 62q37 48 42 226q2 57 0 131l-2 88q-4 155 19 218q35 98 162 134q-123 36 -163 147q-24 66 -22 224q1 50 4 121q4 77 3 120q-2 132 -44 187q-48 63 -225 63v83q237 0 306 -90
q51 -67 59 -261q-1 33 -1 -264q0 -121 69 -213q72 -97 189 -114l3 -1h2v-4z" />
    <glyph glyph-name="asciitilde" unicode="~" horiz-adv-x="971" 
d="M925 1035q-52 -77 -103 -111q-74 -49 -181 -44q-58 3 -172 31.5t-172 31.5q-128 6 -197 -56h-53q50 79 102 113q72 47 185 41q57 -3 166.5 -31.5t165.5 -31.5q130 -8 205 57h54z" />
    <glyph glyph-name="quotesinglbase" unicode="&#x201a;" horiz-adv-x="259" 
d="M213 80q0 -14 -2 -26l1 -1l-73 -221h-92l50 177q-44 17 -44 71q0 75 84 75h2v1v-1q74 -1 74 -75z" />
    <glyph glyph-name="florin" unicode="&#x192;" horiz-adv-x="786" 
d="M290 884h-99l13 82h99l21 128q24 149 114 243q98 104 243 104q41 0 80 -9l87 -20l-12 -78l-101 20q-30 6 -61 6q-225 0 -269 -275l-19 -118h311l-13 -80h-311l-163 -1016q-24 -149 -114 -243q-98 -104 -243 -104q-41 0 -80 9l-87 20l12 78l101 -20q30 -6 61 -6
q214 0 269 275l4 20z" />
    <glyph glyph-name="quotedblbase" unicode="&#x201e;" horiz-adv-x="519" 
d="M213 80q0 -14 -2 -26l1 -1l-73 -221h-92l50 177q-44 17 -44 71q0 75 84 75h2v1v-1q74 -1 74 -75zM473 80q0 -14 -2 -26l1 -1l-73 -221h-92l50 177q-44 17 -44 71q0 75 84 75h2v1v-1q74 -1 74 -75z" />
    <glyph glyph-name="ellipsis" unicode="&#x2026;" horiz-adv-x="1342" 
d="M230 68q0 -78 -76 -78q-77 0 -77 78q0 75 77 75q76 0 76 -75zM732 68q0 -78 -76 -78q-77 0 -77 78q0 75 77 75q76 0 76 -75zM1246 68q0 -78 -76 -78q-77 0 -77 78q0 75 77 75q76 0 76 -75z" />
    <glyph glyph-name="dagger" unicode="&#x2020;" horiz-adv-x="643" 
d="M597 1095h-236v-1195h-90v1195h-224v76h224v261h90v-261h236v-76z" />
    <glyph glyph-name="daggerdbl" unicode="&#x2021;" horiz-adv-x="643" 
d="M597 211h-236v-311h-90v311h-224v76h224v808h-224v76h224v261h90v-261h236v-76h-236v-808h236v-76z" />
    <glyph glyph-name="circumflex" unicode="&#x2c6;" horiz-adv-x="639" 
d="M593 1121h-99l-173 237l-173 -237h-101l208 311h132z" />
    <glyph glyph-name="perthousand" unicode="&#x2030;" horiz-adv-x="1954" 
d="M1908 303q0 -138 -85.5 -222.5t-223.5 -84.5q-140 0 -224 84t-84 223q0 140 84.5 224.5t223.5 84.5q138 0 223.5 -85.5t85.5 -223.5zM664 1166q0 -138 -84.5 -222.5t-222.5 -84.5t-224 84.5t-86 222.5q0 139 85.5 224t224.5 85q138 0 222.5 -85.5t84.5 -223.5zM1122 1442
l-944 -1467h-89l949 1467h84zM1208 303q0 -138 -85.5 -222.5t-223.5 -84.5q-140 0 -224 84t-84 223q0 140 84.5 224.5t223.5 84.5q138 0 223.5 -85.5t85.5 -223.5zM1824 303q0 101 -62.5 164.5t-162.5 63.5q-101 0 -163.5 -63.5t-62.5 -164.5t62.5 -164t163.5 -63t163 63
t62 164zM580 1166q0 101 -61.5 164t-161.5 63q-101 0 -163.5 -63t-62.5 -164t62.5 -164t163.5 -63q99 0 161 63.5t62 163.5zM1124 303q0 101 -62.5 164.5t-162.5 63.5q-101 0 -163.5 -63.5t-62.5 -164.5t62.5 -164t163.5 -63t163 63t62 164z" />
    <glyph glyph-name="Scaron" unicode="&#x160;" horiz-adv-x="1020" 
d="M937 369q0 -192 -138 -288q-120 -84 -319 -81l-58 1v-1h-25q-339 0 -339 373v57h78v-57q0 -287 268 -287h32q144 0 246 41q157 63 157 235q0 130 -109 211q-58 43 -227 111l-92 37q-194 78 -261 134q-112 93 -112 255q0 322 453 322h103q338 0 338 -369v-57h-78v57
q0 291 -269 291h-119q-338 0 -338 -238q0 -123 89 -195q55 -44 202 -102l142 -56q189 -75 245 -122q131 -111 131 -272zM759 1915h-99l-173 -237l-173 237h-101l208 -311h132z" />
    <glyph glyph-name="guilsinglleft" unicode="&#x2039;" horiz-adv-x="517" 
d="M471 172h-104l-320 317l320 318h104l-317 -318z" />
    <glyph glyph-name="OE" unicode="&#x152;" horiz-adv-x="1646" 
d="M1252 682h-273v-528q0 -13 4 -24q211 117 253 320q16 78 16 232zM981 1307q-2 -9 -2 -19v-526h273q0 148 -17 228q-43 203 -254 317zM902 94q-13 31 -13 61v1132h1q0 30 9 56q-92 31 -201 31q-266 0 -443 -191q-79 -85 -101 -209q-13 -74 -13 -255q0 -183 13 -254
q23 -126 101 -211q177 -193 443 -193q111 0 204 33zM1600 -15h-532q-60 0 -112 40q-118 -50 -258 -50q-302 0 -508 216q-92 96 -122 238q-21 99 -21 288q0 190 21 287q31 142 124 239q204 213 506 213q135 0 249 -42q49 43 121 43h532v-82h-540q-10 -2 -19 -5
q227 -132 280 -348q23 -94 25 -260h167v-80h-167q-2 -168 -31 -273q-38 -138 -139 -235q-69 -67 -132 -103q8 -3 16 -4h540v-82z" />
    <glyph glyph-name="quoteleft" unicode="&#x2018;" horiz-adv-x="259" 
d="M213 1453l-50 -176q45 -17 45 -71q0 -76 -85 -76l-1 1l-1 -2v2q-74 1 -74 74q0 15 3 27l-1 1l72 220h92z" />
    <glyph glyph-name="quoteright" unicode="&#x2019;" horiz-adv-x="259" 
d="M213 1377q0 -14 -2 -26l1 -1l-73 -221h-92l50 177q-44 17 -44 71q0 75 84 75h2v1v-1q74 -1 74 -75z" />
    <glyph glyph-name="quotedblleft" unicode="&#x201c;" horiz-adv-x="509" 
d="M463 1453l-50 -176q44 -17 44 -71q0 -76 -84 -76l-2 1q-74 1 -74 74q0 15 2 27l-1 1l73 220h92zM213 1453l-50 -176q44 -17 44 -71q0 -76 -84 -76l-2 1q-74 1 -74 74q0 15 2 27l-1 1l73 220h92z" />
    <glyph glyph-name="quotedblright" unicode="&#x201d;" horiz-adv-x="509" 
d="M463 1377q0 -14 -3 -26l1 -1l-72 -221h-92l50 177q-45 17 -45 71q0 75 85 75h1l1 1v-1q74 -1 74 -75zM213 1377q0 -14 -3 -26l1 -1l-72 -221h-92l50 177q-45 17 -45 71q0 75 85 75h1l1 1v-1q74 -1 74 -75z" />
    <glyph glyph-name="bullet" unicode="&#x2022;" horiz-adv-x="645" 
d="M599 762q0 -148 -64.5 -212.5t-212.5 -64.5t-211.5 64.5t-63.5 212.5t64.5 211.5t212.5 63.5q147 0 211 -64t64 -211z" />
    <glyph glyph-name="endash" unicode="&#x2013;" horiz-adv-x="1117" 
d="M1071 455h-1024v82h1024v-82z" />
    <glyph glyph-name="emdash" unicode="&#x2014;" horiz-adv-x="1731" 
d="M1685 455h-1638v82h1638v-82z" />
    <glyph glyph-name="tilde" unicode="&#x2dc;" horiz-adv-x="639" 
d="M593 1321q-33 -81 -64 -116q-45 -51 -113 -45q-38 3 -107.5 32.5t-106.5 32.5q-80 7 -122 -58h-33q31 81 63 117q44 49 115 43q37 -3 104 -32.5t103 -32.5q81 -8 127 59h34z" />
    <glyph glyph-name="trademark" unicode="&#x2122;" horiz-adv-x="1338" 
d="M1223 701l-1 688q0 6 -2 6q-3 -3 -5 -11l-196 -617q-23 -73 -73 -73q-51 0 -74 73l-195 617q-3 10 -6 11q-2 -3 -2 -6v-691h-69v688q0 68 70 68q55 0 73 -56l200 -633q1 -5 3 -5q0 4 3 9l200 629q18 56 73 56q69 0 69 -67l1 -686h-69zM336 1384v-686h-69v686h-220v61h511
v-61h-222z" />
    <glyph glyph-name="scaron" unicode="&#x161;" horiz-adv-x="815" 
d="M769 248q0 -248 -377 -248h-98q-181 0 -265 106l75 45q69 -71 190 -71h159q232 0 232 162q0 139 -221 200l-187 52q-241 67 -241 247q0 226 305 226h94v1h55q183 0 264 -102l-75 -45q-66 68 -198 68h-171q-190 0 -190 -152q0 -115 196 -170l195 -55q258 -73 258 -264z
M671 1432h-99l-173 -237l-173 237h-101l208 -311h132z" />
    <glyph glyph-name="guilsinglright" unicode="&#x203a;" horiz-adv-x="517" 
d="M47 172h104l320 317l-320 318h-104l317 -318z" />
    <glyph glyph-name="oe" unicode="&#x153;" horiz-adv-x="1657" 
d="M769 134q-132 140 -132 349q0 208 135 352q-98 74 -236 74q-184 0 -295 -121q-106 -117 -106 -303t106 -303q110 -121 295 -121q135 0 233 73zM934 455h-208q9 -159 104 -264q96 109 104 264zM1611 499q0 -26 -5 -44h-584q-8 -189 -129 -321q102 -73 243 -73q93 0 189 31
q108 34 164 93l62 -59q-140 -144 -415 -144q-177 0 -304 96q-123 -96 -296 -96q-217 0 -353 141.5t-136 359.5t136 360t353 142q172 0 296 -96q124 96 294 96q211 0 348 -137.5t137 -348.5zM831 780q-90 -100 -104 -245h206q-13 143 -102 245zM1523 535q-16 167 -123 270.5
t-274 103.5q-136 0 -235 -74q115 -124 130 -300h502z" />
    <glyph glyph-name="Ydieresis" unicode="&#x178;" horiz-adv-x="1074" 
d="M1022 1432l-448 -721v-711h-84v709l-449 723h90l401 -644l400 644h90zM790 1720q0 -78 -78 -78q-76 0 -76 78t76 78q78 0 78 -78zM464 1720q0 -78 -78 -78q-76 0 -76 78t76 78q78 0 78 -78z" />
    <glyph glyph-name="exclamdown" unicode="&#xa1;" horiz-adv-x="246" 
d="M200 1228q0 -75 -76 -75q-77 0 -77 75q0 78 77 78q76 0 76 -78zM167 -160h-86v1169h86v-1169z" />
    <glyph glyph-name="cent" unicode="&#xa2;" horiz-adv-x="926" 
d="M317 122l290 781q-34 6 -71 6q-184 0 -295 -121q-106 -117 -106 -303q0 -180 109 -301q34 -38 73 -62zM773 1113l-60 -160q92 -37 167 -113l-61 -53q-59 63 -132 93l-294 -796q65 -23 143 -23q167 0 283 124l59 -56q-143 -147 -342 -147q-92 0 -170 27l-45 -121h-91
l58 157q-54 33 -102 82q-139 144 -139 356q0 218 136 360t353 142q51 0 98 -9l49 132z" />
    <glyph glyph-name="sterling" unicode="&#xa3;" horiz-adv-x="880" 
d="M671 687h-458v-511q0 -72 81 -87h540v-82h-532q-65 0 -114 35q-65 46 -65 135v358h-1v152h-75v82h75v193q0 198 71 319q88 151 273 151q54 0 119 -15l215 -50l-26 -86l-220 54q-41 10 -78 10q-136 0 -206 -119q-58 -98 -58 -243v-94h1v-120h458v-82z" />
    <glyph glyph-name="currency" unicode="&#xa4;" horiz-adv-x="800" 
d="M582 834q-75 -53 -174 -53q-104 0 -181 59l-115 -115l-58 58l116 115q-58 75 -58 180q0 100 52 173l-117 118l56 56l116 -115q80 65 189 65q104 0 181 -58l100 101l58 -58l-101 -101q56 -76 56 -181q0 -112 -62 -189l114 -115l-56 -56zM408 1312q-103 0 -164 -64.5
t-61 -167.5t61 -168t164 -65q102 0 163 65t61 168q0 102 -61.5 167t-162.5 65z" />
    <glyph glyph-name="yen" unicode="&#xa5;" horiz-adv-x="1074" 
d="M991 307h-411v-307h-84v307h-403v82h403v283h-403v79h377l-423 681h90l401 -644l400 644h90l-423 -681h386v-79h-411v-283h411v-82z" />
    <glyph glyph-name="brokenbar" unicode="&#xa6;" horiz-adv-x="183" 
d="M137 814h-90v758h90v-758zM137 -180h-90v748h90v-748z" />
    <glyph glyph-name="section" unicode="&#xa7;" horiz-adv-x="727" 
d="M159 441l3 2q14 -16 24 -27q26 -19 61 -34q23 -6 56 -6h143q158 0 158 150q0 53 -35 94l-3 -2q-14 16 -25 26q-25 19 -60 35q-23 6 -56 6h-143q-158 0 -158 -151q0 -53 35 -93zM62 1010q0 246 315 246h82q151 0 222 -105l-63 -45q-58 71 -159 71h-133q-194 0 -194 -161
q0 -138 185 -198l156 -51q21 -7 28 -10q63 -14 106 -65q68 -66 68 -170q0 -197 -197 -220q188 -75 188 -252q0 -245 -315 -245h-82q-151 0 -222 105l63 44q58 -70 159 -70h133q194 0 194 160q0 136 -185 198l-156 52q-15 5 -28 10q-63 14 -106 65q-68 66 -68 169
q0 197 197 221q-188 74 -188 251z" />
    <glyph glyph-name="dieresis" unicode="&#xa8;" horiz-adv-x="573" 
d="M527 1237q0 -78 -78 -78q-76 0 -76 78t76 78q78 0 78 -78zM201 1237q0 -78 -78 -78q-76 0 -76 78t76 78q78 0 78 -78z" />
    <glyph glyph-name="copyright" unicode="&#xa9;" horiz-adv-x="1452" 
d="M1406 717q0 -360 -190 -543q-207 -199 -488 -199q-312 0 -518 216q-163 171 -163 526q0 354 165 526q204 213 516 213q309 0 515 -216q163 -171 163 -523zM1312 719q0 319 -133 463q-178 192 -451 192q-276 0 -453 -191q-134 -144 -134 -464t134 -465q178 -193 453 -193
q273 0 451 194q133 145 133 464zM1028 984q-110 117 -263 117q-167 0 -266.5 -107.5t-99.5 -275.5q0 -167 99 -274q101 -111 267 -111q149 0 266 123l40 -67q-133 -128 -306 -128q-197 0 -321 130q-121 127 -121 325q0 197 123 325.5t319 128.5q183 0 320 -141z" />
    <glyph glyph-name="ordfeminine" unicode="&#xaa;" horiz-adv-x="841" 
d="M795 738h-83v110q-111 -123 -289 -123q-167 0 -271.5 100t-104.5 266q0 168 102 267.5t271 99.5q182 0 292 -133v121h83v-708zM732 961v95q0 152 -77 246q-83 102 -232 102q-142 0 -226.5 -84.5t-84.5 -226.5q0 -143 84 -227.5t227 -84.5q71 0 138 31q112 52 171 149z
" />
    <glyph glyph-name="guillemotleft" unicode="&#xab;" horiz-adv-x="777" 
d="M471 172h-104l-320 317l320 318h104l-317 -318zM731 172h-104l-320 317l320 318h104l-317 -318z" />
    <glyph glyph-name="logicalnot" unicode="&#xac;" horiz-adv-x="881" 
d="M835 207h-78v250h-710v82h788v-332z" />
    <glyph glyph-name="registered" unicode="&#xae;" horiz-adv-x="1452" 
d="M1406 717q0 -360 -190 -543q-207 -199 -488 -199q-312 0 -518 216q-163 171 -163 526q0 354 165 526q204 213 516 213q309 0 515 -216q163 -171 163 -523zM1312 719q0 319 -133 463q-178 192 -451 192q-276 0 -453 -191q-134 -144 -134 -464t134 -465q178 -193 453 -193
q273 0 451 194q133 145 133 464zM951 281l-134 359q-47 -12 -105 -12h-164v-348h-74v780q0 113 118 112l160 -1q121 -1 196 -75t75 -195q0 -159 -139 -236l143 -384h-76zM752 1102h-164q-40 -6 -40 -42v-362h182q216 0 216 202q0 90 -52.5 146t-141.5 56z" />
    <glyph glyph-name="macron" unicode="&#xaf;" horiz-adv-x="585" 
d="M539 1188h-492v100h492v-100z" />
    <glyph glyph-name="degree" unicode="&#xb0;" horiz-adv-x="640" 
d="M594 1176q0 -124 -75 -198.5t-199 -74.5t-198.5 74.5t-74.5 198.5t75 199t200 75q122 0 197 -75.5t75 -198.5zM535 1176q0 92 -60.5 152.5t-152.5 60.5q-93 0 -153 -60t-60 -153t60 -153t153 -60q92 0 152.5 60.5t60.5 152.5z" />
    <glyph glyph-name="plusminus" unicode="&#xb1;" horiz-adv-x="995" 
d="M949 569h-409v-419h-80v419h-409v82h409v420h80v-420h409v-82zM941 6h-894v82h894v-82z" />
    <glyph glyph-name="twosuperior" unicode="&#xb2;" horiz-adv-x="611" 
d="M327 962h-4q-162 0 -186 -157v-112q0 -36 39 -43h365v-69h-360q-117 0 -117 111v80q0 133 92 206q48 38 116 50h3q106 10 153 48q63 51 63 142q0 86 -49.5 137t-135.5 51q-166 0 -189 -191h-70q24 260 260 260q117 0 187.5 -71t70.5 -188q0 -103 -67 -177
q-69 -77 -171 -77z" />
    <glyph glyph-name="threesuperior" unicode="&#xb3;" horiz-adv-x="614" 
d="M267 565q-122 0 -220 91l53 45q73 -71 167 -71q99 0 162.5 58.5t63.5 157.5q0 87 -51 144.5t-137 69.5h-123v63h122q152 19 152 141q0 141 -189 141q-79 0 -143 -50l-54 44q90 69 197 69q103 0 177 -50q86 -57 86 -155q0 -113 -114 -171q152 -77 152 -247
q0 -126 -89 -204q-85 -76 -212 -76z" />
    <glyph glyph-name="acute" unicode="&#xb4;" horiz-adv-x="431" 
d="M385 1432l-218 -351h-120l215 351h123z" />
    <glyph glyph-name="mu" unicode="&#xb5;" horiz-adv-x="914" 
d="M700 -246q-224 0 -224 180q0 26 7 49q-20 -1 -40 -1q-206 0 -312 149v-583h-84v1422h84v-3h1v-574q0 -145 82 -238q86 -98 229 -98q64 0 117 20q12 7 25 11q48 24 86 67q81 93 81 238v574h84v-547q0 -193 -98 -311q-57 -68 -137 -99q-14 -17 -29 -33q-11 -17 -11 -48
q0 -94 137 -98q19 -1 138.5 67.5t193.5 64.5v-73q-60 0 -173.5 -68t-156.5 -68z" />
    <glyph glyph-name="paragraph" unicode="&#xb6;" horiz-adv-x="974" 
d="M838 1283q0 74 -81 87h-92v-1498h-84v708h-32q-231 0 -356 112q-146 131 -146 326q0 196 119.5 314.5t314.5 118.5l268 1q64 0 114 -35q65 -46 65 -135v-1412h-90v1413z" />
    <glyph glyph-name="periodcentered" unicode="&#xb7;" horiz-adv-x="246" 
d="M200 735q0 -78 -76 -78q-77 0 -77 78q0 76 77 76q76 0 76 -76z" />
    <glyph glyph-name="periodcentered" unicode="&#x2219;" horiz-adv-x="246" 
d="M200 735q0 -78 -76 -78q-77 0 -77 78q0 76 77 76q76 0 76 -76z" />
    <glyph glyph-name="cedilla" unicode="&#xb8;" horiz-adv-x="647" 
d="M377 -456q-44 0 -157.5 68t-172.5 68v73q73 4 192.5 -64.5t139.5 -67.5q137 4 137 98q0 99 -113 99q-61 0 -100 -42l1 282h67v-184q28 13 62 13q72 0 120 -45.5t48 -117.5q0 -180 -224 -180z" />
    <glyph glyph-name="onesuperior" unicode="&#xb9;" horiz-adv-x="294" 
d="M179 576v768l-132 -71v76l201 114v-887h-69z" />
    <glyph glyph-name="ordmasculine" unicode="&#xba;" horiz-adv-x="683" 
d="M342 799q-131 0 -213 83t-82 214q0 130 82.5 213.5t212.5 83.5q131 0 213 -83t82 -214q0 -132 -81.5 -214.5t-213.5 -82.5zM342 1330q-102 0 -163 -65t-61 -168t60.5 -167.5t163.5 -64.5q101 0 162.5 65t61.5 167q0 103 -61 168t-163 65z" />
    <glyph glyph-name="guillemotright" unicode="&#xbb;" horiz-adv-x="777" 
d="M307 172h104l320 317l-320 318h-104l317 -318zM47 172h104l320 317l-320 318h-104l317 -318z" />
    <glyph glyph-name="onequarter" unicode="&#xbc;" horiz-adv-x="1342" 
d="M1112 1432l-950 -1457h-82l948 1457h84zM179 576v768l-132 -71v76l201 114v-887h-69zM1173 244v-243h-74v243h-328q-91 0 -91 60q0 31 23 62l394 528h76v-585h123v-65h-123zM1099 781l-333 -449q-6 -8 -6 -16q0 -7 26 -7h313v472z" />
    <glyph glyph-name="onehalf" unicode="&#xbd;" horiz-adv-x="1399" 
d="M1112 1432l-950 -1457h-82l948 1457h84zM179 576v768l-132 -71v76l201 114v-887h-69zM1114 381h-3q-163 0 -187 -156v-113q0 -35 40 -42h364v-69h-359q-117 0 -117 111v80q0 132 92 206q47 38 116 49h3q107 11 153 48q63 51 63 142q0 86 -49.5 137t-135.5 51
q-169 0 -189 -190h-71q25 259 261 259q117 0 187.5 -70.5t70.5 -187.5q0 -104 -67 -178q-69 -77 -172 -77z" />
    <glyph glyph-name="threequarters" unicode="&#xbe;" horiz-adv-x="1463" 
d="M1233 1432l-950 -1457h-82l948 1457h84zM267 565q-122 0 -220 91l53 45q73 -71 167 -71q99 0 162.5 58.5t63.5 157.5q0 87 -51 144.5t-137 69.5h-123v63h122q152 19 152 141q0 141 -189 141q-79 0 -143 -50l-54 44q90 69 197 69q103 0 177 -50q86 -57 86 -155
q0 -113 -114 -171q152 -77 152 -247q0 -126 -89 -204q-85 -76 -212 -76zM1294 244v-243h-74v243h-328q-91 0 -91 60q0 31 23 62l394 528h76v-585h123v-65h-123zM1220 781l-333 -449q-6 -8 -6 -16q0 -7 26 -7h313v472z" />
    <glyph glyph-name="questiondown" unicode="&#xbf;" horiz-adv-x="893" 
d="M577 1226q0 -76 -77 -76q-76 0 -76 76q0 78 76 78q77 0 77 -78zM847 237q-20 -213 -95 -288q-112 -111 -291 -111q-192 0 -303 110.5t-111 302.5q0 183 116 292q107 101 294 124v359h86v-443h-29q-166 0 -267 -83q-110 -89 -110 -251q0 -152 87 -240.5t239 -88.5
q144 0 230 88q36 37 51 99q6 25 19 130h84z" />
    <glyph glyph-name="Agrave" unicode="&#xc0;" horiz-adv-x="1031" 
d="M985 0h-90v711h-768v-711h-90v926q0 235 118 377q126 153 357 153q227 0 354 -155q119 -144 119 -375v-926zM895 791v104q0 479 -383 479q-385 0 -385 -479v-104h768zM337 1915l218 -351h120l-215 351h-123z" />
    <glyph glyph-name="Aacute" unicode="&#xc1;" horiz-adv-x="1031" 
d="M985 0h-90v711h-768v-711h-90v926q0 235 118 377q126 153 357 153q227 0 354 -155q119 -144 119 -375v-926zM895 791v104q0 479 -383 479q-385 0 -385 -479v-104h768zM665 1915l-218 -351h-120l215 351h123z" />
    <glyph glyph-name="Acircumflex" unicode="&#xc2;" horiz-adv-x="1042" 
d="M985 0h-90v711h-768v-711h-90v926q0 235 118 377q126 153 357 153q227 0 354 -155q119 -144 119 -375v-926zM895 791v104q0 479 -383 479q-385 0 -385 -479v-104h768zM763 1604h-99l-173 237l-173 -237h-101l208 311h132z" />
    <glyph glyph-name="Atilde" unicode="&#xc3;" horiz-adv-x="1047" 
d="M985 0h-90v711h-768v-711h-90v926q0 235 118 377q126 153 357 153q227 0 354 -155q119 -144 119 -375v-926zM895 791v104q0 479 -383 479q-385 0 -385 -479v-104h768zM753 1804q-33 -81 -64 -116q-45 -51 -113 -45q-38 3 -107.5 32.5t-106.5 32.5q-80 7 -122 -58h-33
q31 81 63 117q44 49 115 43q37 -3 104 -32.5t103 -32.5q81 -8 127 59h34z" />
    <glyph glyph-name="Adieresis" unicode="&#xc4;" horiz-adv-x="1031" 
d="M985 0h-90v711h-768v-711h-90v926q0 235 118 377q126 153 357 153q227 0 354 -155q119 -144 119 -375v-926zM895 791v104q0 479 -383 479q-385 0 -385 -479v-104h768zM717 1720q0 -78 -78 -78q-76 0 -76 78t76 78q78 0 78 -78zM391 1720q0 -78 -78 -78q-76 0 -76 78
t76 78q78 0 78 -78z" />
    <glyph glyph-name="Aring" unicode="&#xc5;" horiz-adv-x="1041" 
d="M756 1739q0 -103 -65.5 -168.5t-168.5 -65.5q-105 0 -169 64.5t-64 169.5q0 104 64.5 168.5t168.5 64.5t169 -64.5t65 -168.5zM676 1739q0 65 -44.5 109t-109.5 44t-109 -44t-44 -109t44 -108.5t109 -43.5t109.5 43.5t44.5 108.5zM995 0h-90v711h-768v-711h-90v926
q0 235 118 377q126 153 357 153q227 0 354 -155q119 -143 119 -375v-926zM905 791v104q0 479 -383 479q-385 0 -385 -479v-104h768z" />
    <glyph glyph-name="AE" unicode="&#xc6;" horiz-adv-x="1664" 
d="M907 210h-2v501h-768v-711h-90v926q0 235 118 377q126 153 357 153q256 0 385 -197v34h1q0 78 49.5 124t128.5 46h532v-82h-540q-81 -12 -81 -87v-506h534v-80h-534v-538q0 -75 81 -87h540v-82h-532q-61 0 -114 39q-65 48 -65 131v39zM905 791v104q0 479 -383 479
q-385 0 -385 -479v-104h768z" />
    <glyph glyph-name="Ccedilla" unicode="&#xc7;" horiz-adv-x="1322" 
d="M792 -456q-44 0 -157.5 68t-172.5 68v73q73 4 192.5 -64.5t139.5 -67.5q137 4 137 98q0 99 -113 99q-61 0 -100 -42l1 200q-282 16 -470 214q-202 212 -202 527q0 322 200 530.5t521 208.5q297 0 508 -217l-68 -53q-179 188 -440 188q-282 0 -457 -188
q-170 -182 -170 -467q0 -286 169 -469q174 -189 458 -189q255 0 440 195l48 -82q-200 -193 -470 -199v-101q28 13 62 13q72 0 120 -45.5t48 -117.5q0 -180 -224 -180z" />
    <glyph glyph-name="Egrave" unicode="&#xc8;" horiz-adv-x="790" 
d="M742 0h-532q-75 0 -127 48t-52 122v1092h1q0 78 49.5 124t128.5 46h532v-82h-540q-81 -12 -81 -87v-506h534v-80h-534v-508q0 -75 81 -87h540v-82zM231 1915l218 -351h120l-215 351h-123z" />
    <glyph glyph-name="Eacute" unicode="&#xc9;" horiz-adv-x="790" 
d="M742 0h-532q-75 0 -127 48t-52 122v1092h1q0 78 49.5 124t128.5 46h532v-82h-540q-81 -12 -81 -87v-506h534v-80h-534v-508q0 -75 81 -87h540v-82zM569 1915l-218 -351h-120l215 351h123z" />
    <glyph glyph-name="Ecircumflex" unicode="&#xca;" horiz-adv-x="790" 
d="M742 0h-532q-75 0 -127 48t-52 122v1092h1q0 78 49.5 124t128.5 46h532v-82h-540q-81 -12 -81 -87v-506h534v-80h-534v-508q0 -75 81 -87h540v-82zM667 1604h-99l-173 237l-173 -237h-101l208 311h132z" />
    <glyph glyph-name="Edieresis" unicode="&#xcb;" horiz-adv-x="785" 
d="M742 0h-532q-75 0 -127 48t-52 122v1092h1q0 78 49.5 124t128.5 46h532v-82h-540q-81 -12 -81 -87v-506h534v-80h-534v-508q0 -75 81 -87h540v-82zM631 1720q0 -78 -78 -78q-76 0 -76 78t76 78q78 0 78 -78zM305 1720q0 -78 -78 -78q-76 0 -76 78t76 78q78 0 78 -78z" />
    <glyph glyph-name="Igrave" unicode="&#xcc;" horiz-adv-x="173" 
d="M130 0h-90v1432h90v-1432zM-107 1915l218 -351h120l-215 351h-123z" />
    <glyph glyph-name="Iacute" unicode="&#xcd;" horiz-adv-x="173" 
d="M130 0h-90v1432h90v-1432zM251 1915l-218 -351h-120l215 351h123z" />
    <glyph glyph-name="Icircumflex" unicode="&#xce;" horiz-adv-x="243" 
d="M153 0h-90v1432h90v-1432zM382 1604h-99l-173 237l-173 -237h-101l208 311h132z" />
    <glyph glyph-name="Idieresis" unicode="&#xcf;" horiz-adv-x="222" 
d="M149 0h-90v1432h90v-1432zM342 1720q0 -78 -78 -78q-76 0 -76 78t76 78q78 0 78 -78zM16 1720q0 -78 -78 -78q-76 0 -76 78t76 78q78 0 78 -78z" />
    <glyph glyph-name="Eth" unicode="&#xd0;" horiz-adv-x="1274" 
d="M165 690h-118v82h118l-1 526h1q0 78 49.5 124t128.5 46l244 1q301 1 479 -224q162 -205 162 -517q0 -315 -142 -508q-160 -217 -465 -217h-276q-62 0 -114 39q-65 48 -65 131zM701 690h-446l1 -518q0 -75 81 -87l279 -1q268 0 402 197q116 169 116 449q0 277 -134 456
q-150 200 -417 200h-248q-81 -12 -81 -87l1 -527h446v-82z" />
    <glyph glyph-name="Ntilde" unicode="&#xd1;" horiz-adv-x="1058" 
d="M1006 124q0 -129 -115 -129q-78 0 -125 99l-589 1247q-10 21 -27 21q-27 0 -27 -37v-1325h-90v1315q0 129 115 129q79 0 125 -98l590 -1246q10 -21 26 -21q27 0 27 35v1318h90v-1308zM786 1804q-33 -81 -64 -116q-45 -51 -113 -45q-38 3 -107.5 32.5t-106.5 32.5
q-80 7 -122 -58h-33q31 81 63 117q44 49 115 43q37 -3 104 -32.5t103 -32.5q81 -8 127 59h34z" />
    <glyph glyph-name="Ograve" unicode="&#xd2;" horiz-adv-x="1417" 
d="M1401 717q0 -360 -190 -543q-207 -199 -488 -199q-312 0 -518 216q-163 171 -163 526q0 354 165 526q204 213 516 213q309 0 515 -216q163 -171 163 -523zM1307 719q0 319 -133 463q-178 192 -451 192q-276 0 -453 -191q-134 -144 -134 -464t134 -465q178 -193 453 -193
q273 0 451 194q133 145 133 464zM553 1915l218 -351h120l-215 351h-123z" />
    <glyph glyph-name="Oacute" unicode="&#xd3;" horiz-adv-x="1460" 
d="M1411 717q0 -360 -190 -543q-207 -199 -488 -199q-312 0 -518 216q-163 171 -163 526q0 354 165 526q204 213 516 213q309 0 515 -216q163 -171 163 -523zM1317 719q0 319 -133 463q-178 192 -451 192q-276 0 -453 -191q-134 -144 -134 -464t134 -465q178 -193 453 -193
q273 0 451 194q133 145 133 464zM891 1915l-218 -351h-120l215 351h123z" />
    <glyph glyph-name="Ocircumflex" unicode="&#xd4;" horiz-adv-x="1455" 
d="M1411 717q0 -360 -190 -543q-207 -199 -488 -199q-312 0 -518 216q-163 171 -163 526q0 354 165 526q204 213 516 213q309 0 515 -216q163 -171 163 -523zM1317 719q0 319 -133 463q-178 192 -451 192q-276 0 -453 -191q-134 -144 -134 -464t134 -465q178 -193 453 -193
q273 0 451 194q133 145 133 464zM989 1604h-99l-173 237l-173 -237h-101l208 311h132z" />
    <glyph glyph-name="Otilde" unicode="&#xd5;" horiz-adv-x="1460" 
d="M1411 717q0 -360 -190 -543q-207 -199 -488 -199q-312 0 -518 216q-163 171 -163 526q0 354 165 526q204 213 516 213q309 0 515 -216q163 -171 163 -523zM1317 719q0 319 -133 463q-178 192 -451 192q-276 0 -453 -191q-134 -144 -134 -464t134 -465q178 -193 453 -193
q273 0 451 194q133 145 133 464zM979 1804q-33 -81 -64 -116q-45 -51 -113 -45q-38 3 -107.5 32.5t-106.5 32.5q-80 7 -122 -58h-33q31 81 63 117q44 49 115 43q37 -3 104 -32.5t103 -32.5q81 -8 127 59h34z" />
    <glyph glyph-name="Odieresis" unicode="&#xd6;" horiz-adv-x="1449" 
d="M1401 717q0 -360 -190 -543q-207 -199 -488 -199q-312 0 -518 216q-163 171 -163 526q0 354 165 526q204 213 516 213q309 0 515 -216q163 -171 163 -523zM1307 719q0 319 -133 463q-178 192 -451 192q-276 0 -453 -191q-134 -144 -134 -464t134 -465q178 -193 453 -193
q273 0 451 194q133 145 133 464zM943 1720q0 -78 -78 -78q-76 0 -76 78t76 78q78 0 78 -78zM617 1720q0 -78 -78 -78q-76 0 -76 78t76 78q78 0 78 -78z" />
    <glyph glyph-name="multiply" unicode="&#xd7;" horiz-adv-x="801" 
d="M748 899l-289 -290l296 -296l-57 -56l-296 296l-289 -289l-58 58l289 289l-297 297l57 56l297 -297l289 290z" />
    <glyph glyph-name="Oslash" unicode="&#xd8;" horiz-adv-x="1452" 
d="M465 115l460 1230q-91 29 -197 29q-276 0 -453 -191q-134 -144 -134 -464t134 -465q84 -91 190 -139zM1003 1314l-458 -1229q85 -24 183 -24q273 0 451 194q133 145 133 464t-133 463q-79 85 -176 132zM1088 1542l-55 -149q116 -54 210 -153q163 -171 163 -523
q0 -360 -190 -543q-207 -199 -488 -199q-114 0 -213 29l-38 -101h-91l49 129q-125 54 -225 159q-163 171 -163 526q0 354 165 526q204 213 516 213q121 0 226 -33l44 119h90z" />
    <glyph glyph-name="Ugrave" unicode="&#xd9;" horiz-adv-x="1015" 
d="M985 506q0 -233 -118 -376q-127 -155 -355 -155q-232 0 -358 153q-117 141 -117 378v926h90v-891q0 -480 385 -480q383 0 383 480v891h90v-926zM327 1915l218 -351h120l-215 351h-123z" />
    <glyph glyph-name="Uacute" unicode="&#xda;" horiz-adv-x="1031" 
d="M985 506q0 -233 -118 -376q-127 -155 -355 -155q-232 0 -358 153q-117 141 -117 378v926h90v-891q0 -480 385 -480q383 0 383 480v891h90v-926zM685 1915l-218 -351h-120l215 351h123z" />
    <glyph glyph-name="Ucircumflex" unicode="&#xdb;" horiz-adv-x="1031" 
d="M985 506q0 -233 -118 -376q-127 -155 -355 -155q-232 0 -358 153q-117 141 -117 378v926h90v-891q0 -480 385 -480q383 0 383 480v891h90v-926zM783 1604h-99l-173 237l-173 -237h-101l208 311h132z" />
    <glyph glyph-name="Udieresis" unicode="&#xdc;" horiz-adv-x="999" 
d="M985 506q0 -233 -118 -376q-127 -155 -355 -155q-232 0 -358 153q-117 141 -117 378v926h90v-891q0 -480 385 -480q383 0 383 480v891h90v-926zM747 1720q0 -78 -78 -78q-76 0 -76 78t76 78q78 0 78 -78zM421 1720q0 -78 -78 -78q-76 0 -76 78t76 78q78 0 78 -78z" />
    <glyph glyph-name="Yacute" unicode="&#xdd;" horiz-adv-x="1047" 
d="M1012 1432l-448 -721v-711h-84v709l-449 723h90l401 -644l400 644h90zM688 1915l-218 -351h-120l215 351h123z" />
    <glyph glyph-name="Thorn" unicode="&#xde;" horiz-adv-x="1006" 
d="M960 767q0 -441 -429 -441q-145 0 -223 21q-115 31 -176 117v-470h-84l-1 1v1467h84v-427q119 174 404 174q425 0 425 -442zM872 769q0 364 -341 364q-399 0 -399 -415v-131q106 -182 399 -182q182 0 264 92q77 87 77 272z" />
    <glyph glyph-name="germandbls" unicode="&#xdf;" horiz-adv-x="1132" 
d="M185 689l-8 2l-130 82l138 -2v126h-13l-120 84h133q12 218 66 315q87 156 321 156q130 0 222.5 -90.5t95.5 -219.5q3 -107 -72 -167q-46 -37 -140 -68q-76 -25 -75 -43q-2 -15 120 -92q154 -97 233 -181q127 -135 130 -286q4 -205 -138 -339t-347 -126l-254 10v72
q74 -16 155 -16q200 0 337 90q161 106 163 307q1 132 -127 244q-17 15 -238 163q-127 85 -124 156q3 67 80 94l138 48q73 40 71 134q-2 92 -68.5 162t-157.5 70q-307 0 -307 -375v-999h-84v689z" />
    <glyph glyph-name="agrave" unicode="&#xe0;" horiz-adv-x="1046" 
d="M1000 0h-84v180q-79 -110 -220 -165q-85 -33 -179 -33q-221 0 -355 139.5t-134 361.5q0 226 129 362q131 140 356 140q257 0 403 -214v197h84v-968zM916 303v131q0 203 -96 331q-107 144 -303 144q-186 0 -295 -120q-106 -116 -106 -304q0 -191 104 -305
q108 -119 297 -119q96 0 179 41q144 71 220 201zM347 1432l218 -351h120l-215 351h-123z" />
    <glyph glyph-name="aacute" unicode="&#xe1;" horiz-adv-x="1046" 
d="M1000 0h-84v180q-79 -110 -220 -165q-85 -33 -179 -33q-221 0 -355 139.5t-134 361.5q0 226 129 362q131 140 356 140q257 0 403 -214v197h84v-968zM916 303v131q0 203 -96 331q-107 144 -303 144q-186 0 -295 -120q-106 -116 -106 -304q0 -191 104 -305
q108 -119 297 -119q96 0 179 41q144 71 220 201zM675 1432l-218 -351h-120l215 351h123z" />
    <glyph glyph-name="acircumflex" unicode="&#xe2;" horiz-adv-x="1046" 
d="M1000 0h-84v180q-79 -110 -220 -165q-85 -33 -179 -33q-221 0 -355 139.5t-134 361.5q0 226 129 362q131 140 356 140q257 0 403 -214v197h84v-968zM916 303v131q0 203 -96 331q-107 144 -303 144q-186 0 -295 -120q-106 -116 -106 -304q0 -191 104 -305
q108 -119 297 -119q96 0 179 41q144 71 220 201zM803 1121h-99l-173 237l-173 -237h-101l208 311h132z" />
    <glyph glyph-name="atilde" unicode="&#xe3;" horiz-adv-x="1046" 
d="M1000 0h-84v180q-79 -110 -220 -165q-85 -33 -179 -33q-221 0 -355 139.5t-134 361.5q0 226 129 362q131 140 356 140q257 0 403 -214v197h84v-968zM916 303v131q0 203 -96 331q-107 144 -303 144q-186 0 -295 -120q-106 -116 -106 -304q0 -191 104 -305
q108 -119 297 -119q96 0 179 41q144 71 220 201zM813 1321q-33 -81 -64 -116q-45 -51 -113 -45q-38 3 -107.5 32.5t-106.5 32.5q-80 7 -122 -58h-33q31 81 63 117q44 49 115 43q37 -3 104 -32.5t103 -32.5q81 -8 127 59h34z" />
    <glyph glyph-name="adieresis" unicode="&#xe4;" horiz-adv-x="1046" 
d="M1000 0h-84v180q-79 -110 -220 -165q-85 -33 -179 -33q-221 0 -355 139.5t-134 361.5q0 226 129 362q131 140 356 140q257 0 403 -214v197h84v-968zM916 303v131q0 203 -96 331q-107 144 -303 144q-186 0 -295 -120q-106 -116 -106 -304q0 -191 104 -305
q108 -119 297 -119q96 0 179 41q144 71 220 201zM757 1237q0 -78 -78 -78q-76 0 -76 78t76 78q78 0 78 -78zM431 1237q0 -78 -78 -78q-76 0 -76 78t76 78q78 0 78 -78z" />
    <glyph glyph-name="aring" unicode="&#xe5;" horiz-adv-x="1065" 
d="M758 1286q0 -105 -65 -169t-170 -64t-169.5 64t-64.5 169q0 104 65 169t169 65q105 0 170 -64.5t65 -169.5zM676 1286q0 65 -43 109.5t-108 44.5t-109.5 -44.5t-44.5 -109.5t44.5 -109t109.5 -44t108 44t43 109zM1019 0h-84v180q-79 -110 -220 -165q-85 -33 -179 -33
q-221 0 -355 139.5t-134 361.5q0 226 129 362q131 140 356 140q257 0 403 -214v197h84v-968zM935 303v131q0 203 -96 331q-107 144 -303 144q-186 0 -295 -120q-106 -116 -106 -304q0 -191 104 -305q108 -119 297 -119q96 0 179 41q144 71 220 201z" />
    <glyph glyph-name="ae" unicode="&#xe6;" horiz-adv-x="1957" 
d="M935 303v131q0 203 -96 331q-107 144 -303 144q-186 0 -295 -120q-106 -116 -106 -304q0 -191 104 -305q108 -119 297 -119q96 0 179 41q144 71 220 201zM1911 500q0 -26 -5 -44h-880q11 -177 122 -285.5t288 -108.5q93 0 189 31q108 34 164 93l62 -59q-67 -70 -193 -109
q-111 -35 -222 -35q-273 0 -417 214v-197h-84v180q-79 -110 -220 -165q-85 -33 -179 -33q-221 0 -355 139.5t-134 361.5q0 226 129 362q131 140 356 140q257 0 403 -214v197h84v-199q141 217 407 217q212 0 348.5 -137t136.5 -349zM1823 536q-17 169 -123 271.5t-274 102.5
q-167 0 -274.5 -103.5t-124.5 -270.5h796z" />
    <glyph glyph-name="ccedilla" unicode="&#xe7;" horiz-adv-x="926" 
d="M588 -456q-44 0 -157.5 68t-172.5 68v73q73 4 192.5 -64.5t139.5 -67.5q137 4 137 98q0 99 -113 99q-61 0 -100 -42l1 206q-209 8 -340 151q-128 140 -128 350q0 218 136 360t353 142q202 0 344 -145l-61 -53q-116 122 -283 122q-184 0 -295 -121q-106 -117 -106 -303
t106 -303q110 -121 295 -121q167 0 283 124l59 -56q-126 -130 -296 -145v-110q28 13 62 13q72 0 120 -45.5t48 -117.5q0 -180 -224 -180z" />
    <glyph glyph-name="egrave" unicode="&#xe8;" horiz-adv-x="1048" 
d="M1002 499q0 -26 -5 -44h-880q10 -178 121 -286t289 -108q93 0 189 31q108 34 164 93l62 -59q-140 -144 -415 -144q-222 0 -360.5 139.5t-138.5 361.5q0 218 136 360t353 142q211 0 348 -137.5t137 -348.5zM914 535q-16 167 -123 270.5t-274 103.5t-275 -103.5
t-124 -270.5h796zM349 1432l218 -351h120l-215 351h-123z" />
    <glyph glyph-name="eacute" unicode="&#xe9;" horiz-adv-x="1048" 
d="M1002 499q0 -26 -5 -44h-880q10 -178 121 -286t289 -108q93 0 189 31q108 34 164 93l62 -59q-140 -144 -415 -144q-222 0 -360.5 139.5t-138.5 361.5q0 218 136 360t353 142q211 0 348 -137.5t137 -348.5zM914 535q-16 167 -123 270.5t-274 103.5t-275 -103.5
t-124 -270.5h796zM697 1432l-218 -351h-120l215 351h123z" />
    <glyph glyph-name="ecircumflex" unicode="&#xea;" horiz-adv-x="1048" 
d="M1002 499q0 -26 -5 -44h-880q10 -178 121 -286t289 -108q93 0 189 31q108 34 164 93l62 -59q-140 -144 -415 -144q-222 0 -360.5 139.5t-138.5 361.5q0 218 136 360t353 142q211 0 348 -137.5t137 -348.5zM914 535q-16 167 -123 270.5t-274 103.5t-275 -103.5
t-124 -270.5h796zM805 1121h-99l-173 237l-173 -237h-101l208 311h132z" />
    <glyph glyph-name="edieresis" unicode="&#xeb;" horiz-adv-x="1048" 
d="M1002 499q0 -26 -5 -44h-880q10 -178 121 -286t289 -108q93 0 189 31q108 34 164 93l62 -59q-140 -144 -415 -144q-222 0 -360.5 139.5t-138.5 361.5q0 218 136 360t353 142q211 0 348 -137.5t137 -348.5zM914 535q-16 167 -123 270.5t-274 103.5t-275 -103.5
t-124 -270.5h796zM759 1237q0 -78 -78 -78q-76 0 -76 78t76 78q78 0 78 -78zM433 1237q0 -78 -78 -78q-76 0 -76 78t76 78q78 0 78 -78z" />
    <glyph glyph-name="igrave" unicode="&#xec;" horiz-adv-x="159" 
d="M113 0h-84v967h84v-967zM-107 1432l218 -351h120l-215 351h-123z" />
    <glyph glyph-name="iacute" unicode="&#xed;" horiz-adv-x="169" 
d="M123 0h-84v967h84v-967zM231 1432l-218 -351h-120l215 351h123z" />
    <glyph glyph-name="icircumflex" unicode="&#xee;" horiz-adv-x="196" 
d="M136 0h-84v967h84v-967zM362 1121h-99l-173 237l-173 -237h-101l208 311h132z" />
    <glyph glyph-name="idieresis" unicode="&#xef;" horiz-adv-x="246" 
d="M162 0h-84v967h84v-967zM362 1237q0 -78 -78 -78q-76 0 -76 78t76 78q78 0 78 -78zM36 1237q0 -78 -78 -78q-76 0 -76 78t76 78q78 0 78 -78z" />
    <glyph glyph-name="eth" unicode="&#xf0;" horiz-adv-x="1169" 
d="M135 485q0 -190 104 -305q109 -119 297 -119q96 0 179 41q144 71 220 201v131q0 203 -96 331q-107 144 -303 144q-186 0 -295 -120q-106 -116 -106 -304zM1123 1273q-53 -79 -103 -112l-2 -1l1 -790l-10 -51q-18 -197 -294 -304q-85 -33 -179 -33q-222 0 -355.5 139
t-133.5 362q0 226 129 362q131 140 356 140q257 0 404 -214v354q-44 -10 -98 -7q-58 3 -172 31t-172 31q-128 7 -196 -55h-53q49 79 101 112q72 46 185 41q57 -3 167 -31t166 -31q37 -2 72 2v210h84l-1 -187q27 12 49 32h55z" />
    <glyph glyph-name="ntilde" unicode="&#xf1;" horiz-adv-x="899" 
d="M833 0h-82v573q0 145 -82 238q-86 98 -229 98q-142 0 -226 -85.5t-84 -227.5v-594h-1v-2h-82v2h-1v967h84v-133q108 149 310 149q190 0 295 -127q98 -117 98 -311v-547zM732 1321q-33 -81 -64 -116q-45 -51 -113 -45q-38 3 -107.5 32.5t-106.5 32.5q-80 7 -122 -58h-33
q31 81 63 117q44 49 115 43q37 -3 104 -32.5t103 -32.5q81 -8 127 59h34z" />
    <glyph glyph-name="ograve" unicode="&#xf2;" horiz-adv-x="1050" 
d="M1004 483q0 -219 -134.5 -360t-352.5 -141q-217 0 -353 141.5t-136 359.5t136 360t353 142q218 0 354 -143q133 -140 133 -359zM916 485q0 185 -106 302q-109 122 -293 122t-295 -121q-106 -117 -106 -303t106 -303q110 -121 295 -121q182 0 292 122q107 119 107 302z
M341 1432l218 -351h120l-215 351h-123z" />
    <glyph glyph-name="oacute" unicode="&#xf3;" horiz-adv-x="1050" 
d="M1004 483q0 -219 -134.5 -360t-352.5 -141q-217 0 -353 141.5t-136 359.5t136 360t353 142q218 0 354 -143q133 -140 133 -359zM916 485q0 185 -106 302q-109 122 -293 122t-295 -121q-106 -117 -106 -303t106 -303q110 -121 295 -121q182 0 292 122q107 119 107 302z
M699 1432l-218 -351h-120l215 351h123z" />
    <glyph glyph-name="ocircumflex" unicode="&#xf4;" horiz-adv-x="1050" 
d="M1004 483q0 -219 -134.5 -360t-352.5 -141q-217 0 -353 141.5t-136 359.5t136 360t353 142q218 0 354 -143q133 -140 133 -359zM916 485q0 185 -106 302q-109 122 -293 122t-295 -121q-106 -117 -106 -303t106 -303q110 -121 295 -121q182 0 292 122q107 119 107 302z
M817 1121h-99l-173 237l-173 -237h-101l208 311h132z" />
    <glyph glyph-name="otilde" unicode="&#xf5;" horiz-adv-x="1050" 
d="M1004 483q0 -219 -134.5 -360t-352.5 -141q-217 0 -353 141.5t-136 359.5t136 360t353 142q218 0 354 -143q133 -140 133 -359zM916 485q0 185 -106 302q-109 122 -293 122t-295 -121q-106 -117 -106 -303t106 -303q110 -121 295 -121q182 0 292 122q107 119 107 302z
M777 1321q-33 -81 -64 -116q-45 -51 -113 -45q-38 3 -107.5 32.5t-106.5 32.5q-80 7 -122 -58h-33q31 81 63 117q44 49 115 43q37 -3 104 -32.5t103 -32.5q81 -8 127 59h34z" />
    <glyph glyph-name="odieresis" unicode="&#xf6;" horiz-adv-x="1050" 
d="M1004 483q0 -219 -134.5 -360t-352.5 -141q-217 0 -353 141.5t-136 359.5t136 360t353 142q218 0 354 -143q133 -140 133 -359zM916 485q0 185 -106 302q-109 122 -293 122t-295 -121q-106 -117 -106 -303t106 -303q110 -121 295 -121q182 0 292 122q107 119 107 302z
M751 1237q0 -78 -78 -78q-76 0 -76 78t76 78q78 0 78 -78zM425 1237q0 -78 -78 -78q-76 0 -76 78t76 78q78 0 78 -78z" />
    <glyph glyph-name="divide" unicode="&#xf7;" horiz-adv-x="1091" 
d="M645 956q0 -42 -28 -71t-70 -29t-70 29t-28 71t28 70.5t70 28.5q98 0 98 -99zM1045 569h-998v82h998v-82zM645 264q0 -98 -98 -98t-98 98q0 42 28 71.5t70 29.5t70 -29.5t28 -71.5z" />
    <glyph glyph-name="oslash" unicode="&#xf8;" horiz-adv-x="1069" 
d="M339 108l295 791q-46 10 -98 10q-184 0 -295 -121q-106 -117 -106 -303q0 -180 109 -301q43 -48 95 -76zM714 871l-296 -795q55 -15 118 -15q182 0 292 122q107 119 107 302q0 180 -108 300q-50 55 -113 86zM793 1083l-52 -139q81 -36 145 -103q137 -144 137 -358
q0 -219 -134.5 -360t-352.5 -141q-78 0 -146 20l-33 -89h-91l45 120q-68 34 -125 94q-139 145 -139 356q0 218 136 360t353 142q66 0 125 -14l42 112h90z" />
    <glyph glyph-name="ugrave" unicode="&#xf9;" horiz-adv-x="864" 
d="M831 420q0 -194 -98 -311q-105 -127 -295 -127q-192 0 -296 126q-97 116 -97 312v547h82v-574q0 -147 81 -239q85 -97 230 -97q143 0 228 98q81 93 81 238v574h84v-547zM265 1432l218 -351h120l-215 351h-123z" />
    <glyph glyph-name="uacute" unicode="&#xfa;" horiz-adv-x="869" 
d="M831 420q0 -194 -98 -311q-105 -127 -295 -127q-192 0 -296 126q-97 116 -97 312v547h82v-574q0 -147 81 -239q85 -97 230 -97q143 0 228 98q81 93 81 238v574h84v-547zM623 1432l-218 -351h-120l215 351h123z" />
    <glyph glyph-name="ucircumflex" unicode="&#xfb;" horiz-adv-x="869" 
d="M831 420q0 -194 -98 -311q-105 -127 -295 -127q-192 0 -296 126q-97 116 -97 312v547h82v-574q0 -147 81 -239q85 -97 230 -97q143 0 228 98q81 93 81 238v574h84v-547zM711 1121h-99l-173 237l-173 -237h-101l208 311h132z" />
    <glyph glyph-name="udieresis" unicode="&#xfc;" horiz-adv-x="874" 
d="M831 420q0 -194 -98 -311q-105 -127 -295 -127q-192 0 -296 126q-97 116 -97 312v547h82v-574q0 -147 81 -239q85 -97 230 -97q143 0 228 98q81 93 81 238v574h84v-547zM665 1237q0 -78 -78 -78q-76 0 -76 78t76 78q78 0 78 -78zM339 1237q0 -78 -78 -78q-76 0 -76 78
t76 78q78 0 78 -78z" />
    <glyph glyph-name="yacute" unicode="&#xfd;" horiz-adv-x="874" 
d="M831 30q0 -225 -123 -358q-127 -138 -350 -138q-171 0 -323 96l29 84q84 -61 183 -82q66 -14 115 -14q185 0 287 115q98 110 98 297v98q-109 -146 -309 -146q-192 0 -296 126q-97 116 -97 312v547h82v-574q0 -147 81 -239q85 -97 230 -97q143 0 228 98q81 93 81 238v574
h84v-937zM613 1432l-218 -351h-120l215 351h123z" />
    <glyph glyph-name="thorn" unicode="&#xfe;" 
d="M1020 484q0 -222 -133.5 -361.5t-355.5 -139.5q-94 0 -179 33q-142 55 -220 165v-640h-84l-1 1v1917h84v-687q147 214 404 214q225 0 356 -140q129 -136 129 -362zM932 486q0 187 -106 304q-109 120 -295 120q-200 0 -305 -142q-94 -126 -94 -333v-131q76 -130 220 -201
q83 -41 179 -41q187 0 296 119q105 116 105 305z" />
    <glyph glyph-name="ydieresis" unicode="&#xff;" horiz-adv-x="884" 
d="M841 30q0 -225 -123 -358q-127 -138 -350 -138q-171 0 -323 96l29 84q84 -61 183 -82q66 -14 115 -14q185 0 287 115q98 110 98 297v98q-109 -146 -309 -146q-192 0 -296 126q-97 116 -97 312v547h82v-574q0 -147 81 -239q85 -97 230 -97q143 0 228 98q81 93 81 238v574
h84v-937zM665 1237q0 -78 -78 -78q-76 0 -76 78t76 78q78 0 78 -78zM339 1237q0 -78 -78 -78q-76 0 -76 78t76 78q78 0 78 -78z" />
    <glyph glyph-name="minus" horiz-adv-x="747" 
d="M701 455h-654v82h654v-82z" />
    </font>
</defs>
</svg>
